<?xml version="1.0" encoding="UTF-8"?>
<svg id="Capa_2" data-name="Capa 2" xmlns="http://www.w3.org/2000/svg" viewBox="0 0 171.32 146.19">
  <defs>
    <style>
      .cls-1 {
        fill: #fff;
      }
    </style>
  </defs>
  <g id="Capa_1-2" data-name="Capa 1">
    <path class="cls-1" d="M143.51,69.05c-.26-1.15-.98-2.12-1.39-3.21-.94-3.42-2.26-6.73-4.23-9.69-1.51-3.99-3.84-7.62-7.17-10.29-1.96-1.89-3.43-4.04-5.81-5.51-.75-.65-2.26-1.56-2.68-.11-.32,1.78-.32,3.68-.93,5.42-1.06,3.52-1.67,7.47-4.54,10.08-1.68,1.71-4.09,2.41-6.45,2.6-1.7-.16-3.26-.95-4.55-2.06-4.96-4.6,3.57-13.76,3.4-19.47-.35-2.23.29-4.47.01-6.67-.51-3.32-2.01-6.32-3.63-9.23-1.36-2.93-3.4-5.62-5.67-7.87-2.4-2.51-5.21-4.59-7.82-6.83-2.87-1.3-5.56-2.94-8.53-3.94-1.28-.43-2.37-1.42-3.69-1.7C77.5.05,75.12-.04,72.73.01c-1.5.08-.46,2.13-.04,3.01,2.18,4.47,4.29,9.26,3.58,14.34-.59,3.55-1.36,7.45-4.42,9.66-2.26,2.42-4.93,4.66-7.12,7.16-2.02,2.86-3.62,5.92-5.5,8.88-.77,1.62-.75,4.98-3.16,4.67-2.16-1-2.96-3.82-3.26-6.02-.25-1.34.16-2.98-.6-4.21-1.88-2.38-6.85,3.15-8.13,4.61-4.21,3.09-6.97,7.62-10.08,11.74-1.88,3.12-3.62,6.43-4.14,10.05-.23.74-.62,1.43-.93,2.15-.49,1.01-.51,2.14-.64,3.24h4.15c.03-.18.07-.36.11-.54,1.38-6.74,4.24-13.43,8.82-18.61,1.13-1.55,2.26-3.13,3.99-4.08.86-.41,1.88-1.91,2.73-2.05l.06.04c1.31,1.69,2.01,3.89,3.47,5.61,2.27,2.9,6.17,4.45,8.69.95,1.12-2.1,2.28-4.19,3.08-6.43,1.45-4.05,4.68-7.03,7.15-10.39,1.62-1.47,3.63-2.47,4.93-4.3,2.85-3.63,5.54-8,5.05-12.79-.02-1.81-.49-3.54-.71-5.35-.05-1.53-.32-2.99-.94-4.44-.2-.62-.48-1.52.12-1.95,2.18-.26,4.34,1.4,6.47,2,2.73,1.01,4.81,3.25,7.07,4.98,2.2,1.81,4.82,3.36,6.39,5.79,2.15,3.44,4.69,6.7,5.61,10.74.57,2.78.74,5.72.41,8.54-.29,3.33-2.12,6.13-3.6,9.01-1.75,4.56-1.61,10.19,2.24,13.66,3.3,2.68,8.01,3.67,11.97,1.97,1.51-.62,2.48-2.16,3.83-3.12,3.42-2.21,4.23-6.35,5.68-9.86,1.23-2.68,3.1-.09,4.09,1.23,3.77,4.64,7.15,9.88,8.7,15.7.66,1.16,1.16,2.38,1.56,3.64h4.14c-.01-.06-.03-.13-.04-.19ZM119.37,130.21c-1.59,1.51-3.3,2.74-5.29,3.69-2.65,1.88-5.7,3.18-8.77,4.21-2.27.86-4.58,1.6-6.9,2.27-1.18.33-2.27,1.04-3.47,1.23-1.07.19-2.19.14-3.26.28-8.08,1.72-16.1-.79-23.92-2.35-.74-.25-1.4-.66-2.07-1.04-1.32-.83-2.93-1-4.31-1.67-.7-.34-1.31-.83-1.93-1.28-1.48-1.16-3.39-1.59-4.8-2.83-1.38-1.36-3.04-2.35-4.62-3.46-.42-.38-.83-.77-1.24-1.17-1.86,0-3.7,0-5.52.01,1.4,1.47,2.79,2.93,4.1,4.45,2.82,1.54,5.29,3.53,7.86,5.46,7.25,3.85,15.28,6.71,23.48,7.43,1.38.18,2.74.9,4.15.72.84-.05,1.73-.35,2.56-.29l.15.02c1.97.2,3.98-.15,5.98-.16,1.89-.23,3.91.04,5.76-.55,3.33-1.25,6.94-1.6,10.16-3.07,1.12-.65,2.28-1.23,3.53-1.58,2.73-.86,5-2.69,7.22-4.42.93-.68,2.16-.96,3.11-1.61,1.02-.69,1.64-1.86,2.57-2.66,1.74-1.02,3.23-2.32,4.57-3.76h-5.85c-1.02.8-2.12,1.5-3.25,2.13Z"/>
    <g>
      <path class="cls-1" d="M18.73,77.26c.07,1.03.26,1.99.34,3.02s-.06,2.07.02,3.1.43,2.04.51,3.06-.13,2.08-.05,3.1.39,2.04.47,3.07-.13,2.08-.06,3.1.24,2.05.31,3.08.36,2.04.44,3.07-.02,2.07.06,3.1.29,2.05.36,3.07.13,2.06.2,3.09-.01,2.07.06,3.1.1,2.06.18,3.09.41,2.16.49,3.19c-1.19.14-2.29.31-3.22.42-1.07.13-2.05.18-3.12.31-.93.12-1.94.15-3.13.31-.03-1.19-.19-2.09-.21-2.98s.19-1.89.17-3.09c-1.11.13-1.84.22-2.95.35-.03,1.21-.06,2.19-.08,3.1s.01,1.79-.02,3c-1.2.17-2.19.22-3.12.36-1.07.15-2.04.45-3.11.61-.94.14-2.05.39-3.24.58.07-1.02.17-2.19.24-3.21s.04-2.06.11-3.08.22-2.04.29-3.07.43-2.03.5-3.05.15-2.05.22-3.07-.21-2.07-.13-3.1.18-2.05.26-3.07.11-2.05.18-3.08.3-2.04.37-3.06.11-2.05.18-3.08.05-2.06.13-3.08.39-2.03.47-3.06.1-2.05.18-3.08.08-2.05.15-3.08.28-1.91.35-2.94c1.12,0,2.01-.04,2.96-.05,1.09,0,2.1-.05,3.08-.05,1.04,0,2.04,0,3.08,0,.98,0,1.98-.14,3.07-.14.95,0,1.91.14,3.03.14ZM10.42,85.33c-.04,1.15.05,2.27.02,3.3-.04,1.15-.29,2.22-.32,3.26-.04,1.13.2,2.22.16,3.28s-.35,2.16-.39,3.25.17,2.14.13,3.27c-.04,1.04-.36,2.1-.4,3.25-.04,1.03.04,2.18,0,3.33,1.08-.1,1.59-.3,2.67-.4-.04-1.14.07-2.14.04-3.15-.04-1.14-.21-2.2-.24-3.23-.03-1.12-.04-2.18-.08-3.23s.1-2.15.06-3.23-.02-2.11-.05-3.23c-.03-1.03-.38-2.08-.41-3.22-.03-1.02-.05-2.02-.09-3.17-.47.01-.62-.09-1.09-.07Z"/>
      <path class="cls-1" d="M39.59,97.47c.77.5,1.54.96,2.11,1.56.62.64,1.13,1.39,1.52,2.15.41.8.73,1.77.92,2.85.15.9.27,1.9.27,2.99,0,1.05-.07,1.66-.07,1.83,0,.98-.11,1.91-.28,2.76-.18.95-.42,1.87-.8,2.66-.4.86-.95,1.63-1.56,2.3-.64.7-1.44,1.32-2.37,1.81-.81.43-1.79.63-2.82.89-.89.22-1.83.62-2.89.72-1.18.11-2.29.08-3.28,0-1.2-.11-2.2-.56-3.1-.96-1.04-.46-1.94-1.03-2.59-1.89-.61-.8-1.18-1.76-1.45-2.92-.23-.96-.08-2.07-.08-3.27,0-1.2-.16-2.11-.16-3.01s.04-1.83.04-3.04c1.14-.08,2.13-.19,3.03-.25,1.03-.07,1.97-.17,3-.23.9-.06,1.88-.05,3.03-.12,0,1.17-.1,2.06-.1,2.93s.04,1.75.04,2.91c0,.54.23.86.55,1.1.32.24.61.33,1.01.29.39-.03.84,0,1.16-.29.32-.29.45-.8.45-1.33,0-1.06.04-1.6.04-2.66,0-1.33-.5-2.44-1.38-3.28-.8-.65-1.6-1.05-2.23-1.56-.72-.58-1.25-1.27-1.97-1.86-.62-.51-1.29-1.08-2.08-1.74-1.02-.71-1.79-1.52-2.43-2.4-.63-.88-1.36-1.83-1.7-3.07-.34-1.24-.38-2.72-.38-4.36,0-1.1.1-1.73.1-1.92.03-1,0-1.95.16-2.82.19-.99.64-1.82,1.01-2.63.4-.9.69-1.83,1.31-2.5.63-.68,1.55-1.03,2.47-1.45.8-.37,1.65-.86,2.67-1.03.87-.15,1.84.05,2.88.05,1.18,0,2.25,0,3.23.18,1.17.21,2.27.37,3.15.84,1.01.53,1.74,1.35,2.39,2.21s1.2,1.76,1.48,2.89c.24.97.34,2.07.34,3.26,0,1.15-.16,2.01-.16,2.88s-.01,1.63-.02,2.78c-1.15.03-2.01.31-2.91.34-1.03.03-1.97.06-3,.1-.9.03-1.93-.04-3.08,0,0-1.16.07-2.09.07-2.96s-.13-1.74-.13-2.89c0-.35.15-.73-.02-.97-.17-.24-.42-.44-.64-.55-.22-.11-.5-.15-.74-.14-.39,0-.77.2-1.09.47-.32.27-.56.71-.56,1.25,0,1.07.14,1.61.14,2.68,0,1.34.48,2.3,1.31,3.12.8.67,1.41,1.29,2.03,1.81.72.6,1.44,1.06,2.15,1.65.63.52,1.19,1.2,1.99,1.86Z"/>
      <path class="cls-1" d="M63.51,77.2c0,1.46,0,2.5,0,3.59s.1,2.22.1,3.68c-1.85.01-2.81-.04-4.66-.02,0,1.1.06,2.23.06,3.33s.04,2.19.04,3.29-.2,2.19-.21,3.29.27,2.19.27,3.29-.27,2.19-.27,3.29.12,2.19.12,3.29-.19,2.19-.19,3.29,0,2.19,0,3.29.18,2.19.18,3.29.03,2.26.02,3.35c-1.15.06-2.17.17-3.07.22-1.03.05-1.98.05-3.01.12-.9.05-1.87.03-3.01.11,0-1.01.06-2.01.06-3.02s-.05-2.02-.05-3.02-.11-2.02-.11-3.02.02-2.02.02-3.02,0-2.02,0-3.02-.03-2.02-.03-3.02.07-2.02.07-3.02.02-2.02.02-3.02-.04-2.02-.04-3.02.03-2.02.03-3.02.05-1.94.05-2.95c-1.88.02-2.74-.08-4.62-.06,0-1.5-.19-2.58-.19-3.71s.07-2.32.07-3.82c1.09,0,2.2.15,3.15.14,1.08,0,2.09-.11,3.05-.11,1.05,0,2.05-.12,3.05-.12s2.01.24,3.05.24c.97,0,1.97-.16,3.05-.16.95,0,1.88.12,2.97.12Z"/>
      <path class="cls-1" d="M73.78,116.72c-1.15.02-2.01.09-2.91.12-1.03.03-1.98-.01-3.01.02-.9.03-1.87.21-3.02.25,0-1.02-.1-2.06-.1-3.08s.16-2.05.16-3.07-.06-2.05-.06-3.07.08-2.05.08-3.07-.15-2.05-.15-3.07.19-2.05.19-3.07-.08-2.05-.08-3.07.16-2.05.16-3.07-.25-2.05-.25-3.07.03-2.05.03-3.07.18-2.05.18-3.07-.02-2.05-.02-3.07-.1-2.07-.1-3.09c1.15,0,2.13.07,3.02.07,1.03,0,1.97-.09,3-.09.9,0,1.92-.03,3.06-.03,0,1.02-.17,2.1-.17,3.12s.27,2.04.27,3.05-.26,2.04-.26,3.05.12,2.04.12,3.05-.18,2.04-.18,3.05,0,2.04,0,3.05.18,2.04.18,3.05.05,2.04.05,3.05.04,2.04.03,3.05-.05,2.04-.05,3.05-.08,2.04-.08,3.05-.05,2.04-.05,3.05-.05,1.92-.05,2.94Z"/>
      <path class="cls-1" d="M84.93,109.59c1.29,0,2.36-.05,3.33-.05s1.88,0,3.18,0c0,1.45.19,2.48.19,3.57s-.04,2.24-.04,3.69c-1.12-.01-2.24.04-3.2.04-1.1,0-2.12-.01-3.1-.02-1.04,0-2.06-.21-3.1-.2-.98,0-2,.03-3.1.04-.96.01-1.97.08-3.09.1,0-1.02-.05-2.02-.04-3.04s-.06-2.03-.06-3.05.16-2.03.17-3.05,0-2.03,0-3.05.07-2.03.07-3.05.02-2.03.02-3.05-.08-2.03-.08-3.05.07-2.03.07-3.05-.14-2.03-.14-3.05-.1-2.03-.1-3.05.16-2.03.16-3.05-.06-2.03-.06-3.05.06-1.99.06-3.01c1.15,0,2.07-.14,2.97-.14,1.03,0,1.97.19,3,.19.9,0,1.86-.09,3-.09,0,1.08-.15,2.15-.15,3.23s.25,2.16.25,3.23-.02,2.16-.02,3.23-.18,2.16-.18,3.23.02,2.16.02,3.23.11,2.16.11,3.23-.07,2.16-.07,3.23.09,2.16.09,3.23.05,2.16.05,3.23-.18,2.27-.18,3.35Z"/>
      <path class="cls-1" d="M101.69,109.78c1.29.03,2.36-.2,3.33-.18s1.82.3,3.11.35c0,1.46-.03,2.46-.03,3.56s.16,2.19.16,3.66c-1.12-.05-2.14-.2-3.1-.24-1.1-.04-2.12-.05-3.1-.08-1.04-.03-2.06.11-3.1.08-.98-.02-2-.12-3.1-.14-.96-.02-1.95-.05-3.07-.07,0-1.02.1-1.99.09-3.01s-.05-2.03-.05-3.05-.06-2.03-.06-3.05.13-2.03.13-3.05-.24-2.03-.24-3.05-.03-2.03-.03-3.05.27-2.03.27-3.05-.09-2.03-.09-3.05.01-2.03.01-3.05-.21-2.03-.21-3.05.02-2.03.02-3.05-.02-2.03-.02-3.05.05-2.13.05-3.15c1.15,0,2.2.18,3.1.18,1.03,0,1.97-.01,3,0,.9,0,1.85-.05,2.99-.05,0,1.08.05,2.15.05,3.24s.07,2.17.07,3.25-.16,2.17-.16,3.25,0,2.17,0,3.25-.07,2.17-.07,3.25-.01,2.17-.01,3.25.09,2.17.09,3.25-.06,2.17-.06,3.25.15,2.17.15,3.25-.11,2.28-.11,3.37Z"/>
      <path class="cls-1" d="M125.01,84.71c-1.29-.02-2.34,0-3.3,0s-1.85-.03-3.14-.05c0,1.16.03,2.04.04,2.95,0,1.05-.06,2-.06,3.05,0,.91.02,1.83.02,2.99,1.29.03,2.2-.04,3.17-.02s1.81.32,3.1.36c0,1.5-.03,2.52-.02,3.64s.24,2.32.25,3.82c-1.29-.05-2.34-.3-3.31-.34s-1.84.18-3.13.13c0,1.16-.01,2.02,0,2.93,0,1.05-.13,2-.13,3.05,0,.91.16,1.78.16,2.94,1.29.06,2.15.37,3.12.42s1.93-.03,3.22.05c0,1.5.12,2.61.12,3.73s-.2,2.16-.2,3.66c-1.12-.08-2.02-.22-2.98-.28-1.1-.07-2.13.16-3.12.1-1.04-.06-2.04-.43-3.08-.48-.98-.05-2-.1-3.1-.16-.96-.04-1.98.07-3.11.02,0-1.03.12-2.05.12-3.08s-.03-2.06-.03-3.08-.17-2.06-.17-3.08.08-2.06.08-3.08.04-2.06.03-3.08.08-2.06.08-3.08-.05-2.06-.06-3.08-.07-2.06-.07-3.08.13-2.06.13-3.08-.25-2.05-.25-3.08-.03-2.06-.03-3.08.27-2.06.27-3.08-.12-2.01-.12-3.03c1.12,0,2.1.03,3.05.03,1.1,0,2.11-.22,3.09-.21,1.04,0,2.05.02,3.09.02.98,0,1.99-.02,3.09-.02.95,0,2.09.06,3.21.06,0,1.5-.19,2.7-.18,3.83s.16,2.31.16,3.81Z"/>
      <path class="cls-1" d="M146.02,101.03c.2,1.16.31,2.17.48,3.18.19,1.14.39,2.21.56,3.24.19,1.11.56,2.14.74,3.2s.31,2.13.5,3.24c.17,1.02.45,2.07.64,3.22.17,1.01.21,2.09.4,3.25-1.19-.14-2.17-.37-3.1-.47-1.07-.12-2.06-.15-3.13-.26-.93-.1-2.02-.06-3.21-.17-.13-1.05-.05-2.11-.17-3-.13-1.03-.48-1.95-.6-2.87-.13-.98-.05-1.94-.18-2.92-.12-.92-.47-1.84-.6-2.86-.12-.89-.04-1.93-.18-2.98-.94-.06-1.57-.11-2.5-.17,0,1.03.02,2.06.02,2.94,0,1.01.22,1.94.22,2.84,0,.96.04,1.89.04,2.84,0,.9-.22,1.83-.22,2.84,0,.88.03,1.76.03,2.8-1.14-.1-2.05-.27-2.95-.35-1.03-.09-1.98-.06-3.01-.14-.9-.07-1.89-.1-3.03-.18,0-1.05-.05-2.13-.05-3.18s-.04-2.11-.04-3.16-.02-2.11-.02-3.16-.01-2.11-.01-3.16-.03-2.11-.03-3.16.01-2.11,0-3.16.07-2.11.06-3.16-.05-2.11-.05-3.16-.09-2.11-.09-3.16.33-2.11.33-3.16,0-2.11-.01-3.16-.29-2.11-.29-3.16.21-2.01.21-3.06c1.02,0,1.83-.26,2.67-.26.98,0,1.87.08,2.76.08s1.78.15,2.76.15c.84,0,1.75-.21,2.77-.21.96,0,1.82.38,2.64.5.95.14,1.83.24,2.59.55.87.35,1.71.71,2.35,1.28.67.6,1,1.51,1.41,2.47.34.8.56,1.68.71,2.72.13.87.51,1.8.51,2.84,0,2.64-.31,4.04-.31,4.17,0,1.69-.16,3.05-.5,4.17-.34,1.12-.69,2.05-1.38,2.69-.68.64-1.65.98-2.77,1.23,0,.41.03.82.03,1.22,1.2.07,1.77.1,2.97.17ZM137.05,84.72c-.53,0-.93.04-1.46.03,0,1.14,0,2.21,0,3.14,0,1.09.21,2.08.21,3.07s-.04,1.98-.04,3.07c0,.93.1,1.89.1,3.02.53.02.67.1,1.2.13.24.01.55.06.82-.06.27-.12.49-.4.68-.66.19-.26.13-.58.13-.89,0-1.15.24-2.11.24-3.01,0-1.03-.23-1.98-.23-3.01,0-.9.19-1.87.19-3.01,0-.49-.38-.8-.77-1.11-.39-.32-.7-.7-1.09-.71Z"/>
      <path class="cls-1" d="M160.6,76.68c1.03,0,2-.21,2.88-.06,1.01.18,1.92.54,2.73.92.9.42,1.76.91,2.42,1.58s.94,1.61,1.35,2.53c.36.82.93,1.64,1.1,2.66.15.88.02,1.86.02,2.89,0,1.15.06,2.24.06,3.27,0,1.15.16,2.23.16,3.27,0,1.13-.23,2.21-.23,3.27s.11,2.19.11,3.27.12,2.16.12,3.27-.24,2.14-.24,3.27c0,1.04,0,2.13,0,3.27,0,1.04.03,2.12.03,3.27,0,1.22-.17,2.29-.38,3.27-.25,1.2-.67,2.16-1.23,3-.63.94-1.38,1.62-2.4,2.11-.91.44-1.91.9-3.13.98-1,.07-2.11-.03-3.32-.2-1.01-.14-1.99-.23-2.86-.49-.98-.29-1.82-.8-2.62-1.24-.88-.49-1.55-1.15-2.2-1.82s-1.26-1.4-1.68-2.29c-.4-.83-.86-1.69-1.05-2.69-.17-.89,0-1.87,0-2.89,0-1.08-.25-2.1-.25-3.07,0-1.07.2-2.09.2-3.07,0-1.06-.25-2.08-.25-3.07s.23-2.06.23-3.07.04-2.03.03-3.07-.06-2.01-.06-3.07c0-.98-.23-2-.23-3.07,0-.97-.04-1.99-.04-3.07,0-1.22.35-2.31.58-3.3.27-1.17.7-2.17,1.29-3.03.63-.92,1.46-1.58,2.45-2.15.89-.52,1.87-.99,3.06-1.23,1-.2,2.11-.15,3.32-.15ZM162.35,112.25c0-1.11-.29-2.16-.29-3.16,0-1.11.08-2.15.08-3.16,0-1.09-.1-2.14-.1-3.16s.29-2.12.29-3.16-.32-2.09-.32-3.16.2-2.07.2-3.16c0-1.01-.07-2.05-.07-3.16,0-1-.16-2.05-.16-3.16,0-.57.05-1.05-.27-1.34-.32-.29-.71-.35-1.11-.36-.24,0-.4.15-.62.26-.22.11-.55.11-.72.36-.17.25-.27.61-.27.99,0,1.1.03,2.14.03,3.13,0,1.1-.07,2.14-.07,3.13,0,1.08-.03,2.12-.03,3.13s.02,2.1.02,3.13.22,2.07.22,3.13-.04,2.05-.04,3.13c0,1,.11,2.03.11,3.13,0,.99-.15,2.03-.15,3.13,0,.56.08,1.1.39,1.42.32.32.76.46,1.15.5.24.03.43-.18.65-.27.22-.09.57-.07.74-.31.17-.24.32-.63.32-1.01Z"/>
    </g>
    <g>
      <path class="cls-1" d="M69.13,69.63v-15.15h10.56v2.97h-6.9v3.11h6.36v2.98h-6.36v3.11h6.9v2.97h-10.56Z"/>
      <path class="cls-1" d="M82.93,69.63v-15.15h3.66v12.18h6.3v2.97h-9.96Z"/>
    </g>
  </g>
</svg>